<svg width="325" height="142" viewBox="0 0 325 142" fill="none" xmlns="http://www.w3.org/2000/svg">
<path opacity="0.2" d="M47.0105 31.6316L89.0823 38.445L157.827 28.9658L209.08 42.5777L260.78 31.0433L308.712 122.723L231.464 140.951L157.335 133.311L70.6973 141.48L16.0858 119.699L47.0105 31.6316Z" fill="#BCBCBC"/>
<path d="M35.1117 5.08633L81.5173 12.5997L157.358 2.14502L213.891 17.1568L270.922 4.43105L323.806 105.575L238.59 125.68L156.815 117.251L61.2409 126.261L1 102.239L35.1117 5.08633Z" fill="white" stroke="#263238" stroke-width="0.825981" stroke-linecap="round" stroke-linejoin="round"/>
<path d="M43.9354 11.6184L80.1842 18.1489L156.941 8.35693L215.075 22.0731L265.375 10.643L308.496 101.883L235.738 119.978L157.343 112.457L61.8959 119.077L16.302 98.8597L43.9354 11.6184Z" fill="#92E3A9" stroke="#263238" stroke-width="0.825981" stroke-linecap="round" stroke-linejoin="round"/>
<g opacity="0.64">
<path d="M250.4 51.9702L222.297 59.3272H213.749C213.749 59.3272 224.747 69.9159 245.917 71.9487C267.087 73.9816 271.979 69.9159 271.979 69.9159L250.4 51.9702Z" fill="white"/>
<path d="M128.235 14.9175L109.5 18.9906L107.058 25.5062L118.868 23.0638L116.016 37.7182L129.866 36.0949L132.308 19.3927L128.235 14.9175Z" fill="white"/>
<path d="M116.425 40.1604L115.204 47.495L123.35 45.8643V39.7583L116.425 40.1604Z" fill="white"/>
<path d="M111.541 40.1606L109.91 48.3069L94.0269 50.3472L94.4364 44.6433L111.541 40.1606Z" fill="white"/>
<path d="M205.387 76.4092C197.628 76.4092 191.336 80.4153 191.336 85.3448C191.336 90.2743 197.628 94.2804 205.387 94.2804C213.146 94.2804 219.438 90.2668 219.438 85.3448C219.438 80.4228 213.161 76.4092 205.387 76.4092ZM205.387 89.4328C201.857 89.4328 198.998 87.6159 198.998 85.3671C198.998 83.1183 201.857 81.294 205.387 81.294C208.916 81.294 211.791 83.1556 211.791 85.3895C211.791 87.6234 208.931 89.4328 205.387 89.4328Z" fill="white"/>
<path d="M94.0267 108.577L105.025 81.6958L80.5935 82.9245L76.9225 92.2845H88.3228L79.7744 111.831L94.0267 108.577Z" fill="white"/>
<path d="M141.266 49.9375L157.552 46.2739L178.729 52.7895L162.436 55.634L157.961 51.9704L141.266 55.2319V49.9375Z" fill="white"/>
<path d="M142.078 34.4652L142.488 45.0539L149.815 43.4232L148.594 34.0557L142.078 34.4652Z" fill="white"/>
<path d="M40.6812 40.1606L34.1656 58.8956L60.6374 65.8207L64.7105 51.1589L53.3102 40.5702L40.6812 40.1606Z" fill="white"/>
</g>
<path d="M302.934 90.1013L292.397 79.6764C294.214 79.4456 295.972 79.1924 297.654 78.9318L296.336 76.1319C294.229 76.4447 292.018 76.7425 289.709 77.0106L258.301 45.9221C266.648 44.6786 274.578 43.6063 280.64 42.9808L279.292 40.1363C272.739 40.8363 264.399 41.9905 255.806 43.2861L255.895 42.7425L254.89 42.5862L243.817 31.6251L268.681 17.5739L267.407 14.8783L241.643 29.4434L230.623 18.5419L227.182 19.2866L249.916 41.7745L177.612 30.4635C177.262 29.6668 176.912 28.87 176.592 28.0509C174.525 22.8023 172.92 17.3831 171.796 11.8551L168.594 11.1105C169.771 17.2412 171.516 23.2491 173.807 29.0562L174.164 29.9274L157.224 27.269L139.74 28.7955L139.114 10.6265L136.136 11.0062L137.767 60.7106C136.754 60.7106 135.741 60.7106 134.788 60.6659C107.274 59.8691 77.5555 51.842 73.1547 49.4442C70.1762 47.7986 63.4745 40.047 59.9077 35.6462C67.1977 35.2664 74.2494 34.2835 78.4193 32.1166C84.1381 29.1381 97.6681 21.2822 109.292 14.4315L101.786 15.3921C91.8599 21.2077 81.7702 27.0308 77.0566 29.4732C68.6199 33.8516 46.0277 32.9432 37.3527 32.407L36.4219 35.3409C39.6537 35.5568 45.298 35.8547 51.5529 35.8547C53.0422 35.8547 54.6431 35.8547 56.2143 35.7951C57.3313 37.2099 67.1232 49.541 71.7325 52.0579C76.3418 54.5748 106.261 62.8179 134.706 63.637C135.754 63.6667 136.818 63.6816 137.901 63.6816L138.124 70.4802L115.361 71.1429L115.018 71.0237L114.973 71.1503L69.7592 72.4683L28.015 61.8945L27.114 64.739L52.8262 71.2397L28.9979 104.473L31.7829 105.701L55.9537 72.029L69.4614 75.4469L113.938 74.1512L100.989 110.705L85.7763 117.407L94.5481 116.804L157.336 89.163L202.14 65.1635C207.24 68.5634 212.743 71.3149 218.522 73.3544C223.766 75.1928 229.121 76.6975 234.554 77.8595L227.987 91.0023L200.919 116.662L204.851 117.035L230.228 92.983L230.414 92.8043L237.577 78.4775C245.118 79.9072 252.754 80.7833 260.423 81.0986L254.391 115.352L257.556 114.57L263.468 81.1806C265.025 81.2178 266.566 81.2476 268.092 81.2476C274.951 81.2402 281.804 80.8649 288.622 80.1232L306.665 97.9944L302.934 90.1013ZM104.727 109.075L117.103 74.0767L138.221 73.4736L138.898 94.0478L104.727 109.075ZM247.965 44.5297C230.69 47.255 214.196 50.2038 210.607 50.9186L207.628 51.5218C204.441 52.1845 199.474 53.2195 193.443 54.3514C187.498 48.3459 182.63 41.364 179.049 33.7101L247.965 44.5297ZM139.859 31.7741L157.097 30.2848L175.52 33.174C179.117 41.2072 184.027 48.5856 190.047 55.0067C179.92 56.8459 167.411 58.8266 155.221 59.9063L155.094 59.7202L154.752 59.951C149.986 60.3606 145.28 60.6361 140.782 60.6957L139.859 31.7741ZM140.902 63.6444C143.791 63.5997 146.769 63.4657 149.785 63.2721L141.088 69.1398L140.902 63.6444ZM156.107 86.4451L141.855 92.7149L141.199 72.6619L155.794 62.8104C168.84 61.6339 182.192 59.4596 192.631 57.5235C194.774 59.5695 197.045 61.4771 199.43 63.2349L156.107 86.4451ZM219.535 70.495C210.921 67.5265 202.976 62.8911 196.153 56.8533C201.254 55.8779 205.446 55.0067 208.261 54.4184L211.188 53.8152C216.504 52.7504 236.058 49.3474 254.622 46.4806L285.897 77.4053C267.095 79.2147 242.969 78.7754 219.535 70.495Z" fill="white" stroke="#263238" stroke-width="0.825981" stroke-linecap="round" stroke-linejoin="round"/>
<path d="M66.3415 93.439L61.5684 121.363" stroke="#263238" stroke-width="0.825981" stroke-linecap="round" stroke-linejoin="round"/>
<path d="M79.5362 16.1904L67.3093 87.7647" stroke="#263238" stroke-width="0.825981" stroke-linecap="round" stroke-linejoin="round"/>
<path d="M156.74 5.14062L157.149 34.0548" stroke="#263238" stroke-width="0.825981" stroke-linecap="round" stroke-linejoin="round"/>
<path d="M216.996 39.4443L233.705 109.797" stroke="#263238" stroke-width="0.825981" stroke-linecap="round" stroke-linejoin="round"/>
<path d="M212.528 20.6128L216.199 36.0863" stroke="#263238" stroke-width="0.825981" stroke-linecap="round" stroke-linejoin="round"/>
<path d="M157.551 115.093L157.149 97.9883" stroke="#263238" stroke-width="0.825981" stroke-linecap="round" stroke-linejoin="round"/>
<path d="M54.3006 33.0176C53.3915 33.0176 52.4914 33.1968 51.6516 33.5449C50.8118 33.893 50.0489 34.4032 49.4064 35.0463C48.764 35.6895 48.2546 36.453 47.9074 37.2931C47.5602 38.1333 47.382 39.0336 47.3829 39.9427C47.3829 43.7627 54.3006 50.8888 54.3006 50.8888C54.3006 50.8888 61.2257 43.7627 61.2257 39.9427C61.2257 38.106 60.4961 36.3446 59.1974 35.0459C57.8987 33.7472 56.1372 33.0176 54.3006 33.0176ZM54.3006 42.6978C53.8364 42.6978 53.3826 42.5601 52.9967 42.302C52.6108 42.0439 52.3102 41.6772 52.1328 41.2481C51.9555 40.8191 51.9095 40.3471 52.0006 39.8919C52.0917 39.4367 52.3159 39.0187 52.6447 38.691C52.9734 38.3633 53.3921 38.1405 53.8476 38.0508C54.3031 37.9611 54.7749 38.0086 55.2034 38.1873C55.6319 38.366 55.9977 38.6678 56.2545 39.0545C56.5114 39.4412 56.6477 39.8954 56.6462 40.3597C56.6423 40.9792 56.3934 41.572 55.9539 42.0086C55.5145 42.4453 54.9201 42.6904 54.3006 42.6904V42.6978Z" fill="#263238" stroke="#263238" stroke-width="0.825981" stroke-linecap="round" stroke-linejoin="round"/>
<path d="M126.158 1C125.249 0.999999 124.349 1.17918 123.509 1.52729C122.669 1.8754 121.906 2.38562 121.264 3.02877C120.621 3.67192 120.112 4.43539 119.765 5.27554C119.418 6.11569 119.239 7.01603 119.24 7.9251C119.24 11.7451 126.158 18.8712 126.158 18.8712C126.158 18.8712 133.083 11.7451 133.083 7.9251C133.083 6.08845 132.353 4.32702 131.055 3.02831C129.756 1.72961 127.995 1 126.158 1ZM126.158 10.6802C125.694 10.6802 125.24 10.5425 124.854 10.2844C124.468 10.0263 124.168 9.65957 123.99 9.23054C123.813 8.8015 123.767 8.3295 123.858 7.8743C123.949 7.4191 124.173 7.00117 124.502 6.67343C124.831 6.34569 125.25 6.12288 125.705 6.03322C126.16 5.94355 126.632 5.99106 127.061 6.16974C127.489 6.34841 127.855 6.65022 128.112 7.03693C128.369 7.42364 128.505 7.87786 128.504 8.34209C128.5 8.9616 128.251 9.55439 127.811 9.99106C127.372 10.4277 126.778 10.6728 126.158 10.6728V10.6802Z" fill="#263238" stroke="#263238" stroke-width="0.825981" stroke-linecap="round" stroke-linejoin="round"/>
<path d="M114.437 49.7647C113.528 49.7637 112.628 49.9419 111.788 50.2891C110.947 50.6363 110.184 51.1457 109.541 51.7881C108.898 52.4306 108.387 53.1935 108.039 54.0333C107.691 54.8731 107.512 55.7732 107.512 56.6823C107.512 60.5097 114.437 67.6284 114.437 67.6284C114.437 67.6284 121.355 60.5097 121.355 56.6823C121.355 54.8476 120.626 53.0881 119.329 51.7908C118.031 50.4935 116.272 49.7647 114.437 49.7647ZM114.437 59.4449C113.975 59.4449 113.524 59.3081 113.14 59.0519C112.756 58.7956 112.456 58.4313 112.278 58.0049C112.101 57.5785 112.054 57.1092 112.143 56.656C112.232 56.2029 112.453 55.7863 112.779 55.4587C113.104 55.1311 113.519 54.9072 113.972 54.8153C114.425 54.7235 114.894 54.7676 115.322 54.9423C115.749 55.117 116.115 55.4144 116.374 55.7969C116.633 56.1795 116.772 56.6301 116.775 57.0918C116.775 57.712 116.529 58.3067 116.091 58.7452C115.652 59.1837 115.057 59.43 114.437 59.43V59.4449Z" fill="#263238" stroke="#263238" stroke-width="0.825981" stroke-linecap="round" stroke-linejoin="round"/>
<path d="M253.312 45.2979C252.402 45.2969 251.502 45.4751 250.662 45.8223C249.822 46.1695 249.058 46.6789 248.415 47.3214C247.772 47.9638 247.262 48.7267 246.914 49.5665C246.566 50.4063 246.386 51.3064 246.386 52.2155C246.386 56.0429 253.312 63.1616 253.312 63.1616C253.312 63.1616 260.229 56.0429 260.229 52.2155C260.229 50.3808 259.5 48.6213 258.203 47.324C256.906 46.0267 255.146 45.2979 253.312 45.2979ZM253.312 54.9781C252.85 54.9781 252.398 54.8413 252.014 54.5851C251.63 54.3288 251.33 53.9645 251.153 53.5381C250.975 53.1117 250.928 52.6424 251.017 52.1892C251.106 51.7361 251.328 51.3195 251.653 50.9919C251.979 50.6643 252.394 50.4404 252.846 50.3486C253.299 50.2567 253.769 50.3008 254.196 50.4755C254.624 50.6502 254.99 50.9476 255.248 51.3301C255.507 51.7127 255.647 52.1633 255.65 52.6251C255.65 53.2452 255.403 53.8399 254.965 54.2784C254.526 54.7169 253.932 54.9632 253.312 54.9632V54.9781Z" fill="#263238" stroke="#263238" stroke-width="0.825981" stroke-linecap="round" stroke-linejoin="round"/>
<path d="M174.008 67.2647C173.099 67.2637 172.199 67.4419 171.359 67.7891C170.519 68.1363 169.755 68.6457 169.112 69.2881C168.469 69.9306 167.959 70.6935 167.61 71.5333C167.262 72.3731 167.083 73.2732 167.083 74.1823C167.083 78.0097 174.008 85.1284 174.008 85.1284C174.008 85.1284 180.926 78.0097 180.926 74.1823C180.926 73.2739 180.747 72.3743 180.399 71.535C180.052 70.6957 179.542 69.9331 178.9 69.2908C178.257 68.6484 177.495 68.1389 176.656 67.7912C175.816 67.4436 174.917 67.2647 174.008 67.2647ZM174.008 76.9449C173.546 76.9449 173.095 76.8081 172.711 76.5519C172.327 76.2956 172.027 75.9313 171.85 75.5049C171.672 75.0785 171.625 74.6092 171.714 74.156C171.803 73.7029 172.024 73.2863 172.35 72.9587C172.675 72.6311 173.09 72.4072 173.543 72.3153C173.996 72.2235 174.465 72.2676 174.893 72.4423C175.32 72.617 175.686 72.9144 175.945 73.2969C176.204 73.6795 176.343 74.1301 176.346 74.5918C176.346 75.212 176.1 75.8067 175.662 76.2452C175.223 76.6837 174.628 76.93 174.008 76.93V76.9449Z" fill="#263238" stroke="#263238" stroke-width="0.825981" stroke-linecap="round" stroke-linejoin="round"/>
<path d="M203.049 7.32129C202.14 7.32031 201.239 7.49852 200.399 7.84573C199.559 8.19293 198.796 8.70233 198.152 9.34479C197.509 9.98725 196.999 10.7502 196.651 11.59C196.303 12.4297 196.124 13.3299 196.124 14.2389C196.124 18.0664 203.049 25.1851 203.049 25.1851C203.049 25.1851 209.966 18.0664 209.966 14.2389C209.966 12.4043 209.238 10.6447 207.94 9.34743C206.643 8.05011 204.883 7.32129 203.049 7.32129ZM203.049 17.0015C202.587 17.0015 202.135 16.8648 201.751 16.6085C201.367 16.3522 201.067 15.9879 200.89 15.5616C200.713 15.1352 200.665 14.6658 200.755 14.2127C200.844 13.7595 201.065 13.3429 201.39 13.0153C201.716 12.6877 202.131 12.4639 202.584 12.372C203.036 12.2801 203.506 12.3243 203.933 12.499C204.361 12.6737 204.727 12.971 204.986 13.3536C205.244 13.7361 205.384 14.1867 205.387 14.6485C205.387 15.2686 205.141 15.8633 204.702 16.3018C204.264 16.7403 203.669 16.9866 203.049 16.9866V17.0015Z" fill="#263238" stroke="#263238" stroke-width="0.825981" stroke-linecap="round" stroke-linejoin="round"/>
</svg>
