<svg width="78" height="47" viewBox="0 0 78 47" fill="none" xmlns="http://www.w3.org/2000/svg">
<path fill-rule="evenodd" clip-rule="evenodd" d="M52.8808 9.80663L77.874 12.0055L57.67 47L30.0477 39.4003L18.8874 27.7562L0 23.916L25.7782 3.34202L40.6637 4.14198L52.8808 9.80663Z" fill="#0A0A0A"/>
<path fill-rule="evenodd" clip-rule="evenodd" d="M40.245 5.82464L26.334 5.07592L3.91064 22.9742L19.7484 26.1937L30.9522 37.883L56.8531 45.009L75.0634 13.4675L52.4347 11.4755L40.245 5.82464Z" fill="#FEFEFE"/>
<path fill-rule="evenodd" clip-rule="evenodd" d="M37.0609 6.68366C38.0216 6.73686 38.994 6.79203 39.991 6.84523C39.4367 7.35357 38.877 7.86781 38.3087 8.38403C37.8794 7.80476 37.4607 7.23732 37.0609 6.68366Z" fill="#76FFB7"/>
<path fill-rule="evenodd" clip-rule="evenodd" d="M30.7732 15.3549C29.1741 16.8444 27.5182 18.3931 25.8055 20.0068C24.028 21.6796 22.1876 23.4272 20.2703 25.2478C18.415 24.8754 16.6195 24.5129 14.8671 24.1602C16.8043 22.4401 18.6704 20.7831 20.4698 19.195C22.2086 17.6582 23.8852 16.1804 25.5148 14.7519C27.218 14.949 28.9713 15.146 30.7732 15.3549Z" fill="#01EC71"/>
<path fill-rule="evenodd" clip-rule="evenodd" d="M19.5112 18.4247L18.9022 18.9527C17.0952 20.5191 15.2276 22.1486 13.2937 23.8391C10.8539 23.3465 8.51963 22.8697 6.28076 22.4027C9.15387 20.1093 11.8924 17.9242 14.5021 15.8416L19.5112 18.4247Z" fill="#00A850"/>
<path fill-rule="evenodd" clip-rule="evenodd" d="M26.6708 6.12792C28.9959 6.24417 31.4084 6.37421 33.9089 6.50819C34.6783 7.66476 35.4903 8.89424 36.3482 10.1868C35.0552 11.3808 33.7225 12.6142 32.3508 13.889C30.5621 13.7018 28.8176 13.5225 27.1159 13.3472C26.6028 13.294 26.084 13.2408 25.5784 13.1895C25.0437 13.6447 24.5064 14.1097 23.9653 14.5766C22.9877 15.4199 21.9915 16.279 20.9758 17.1558L16.2632 14.4367L17.4588 13.4811C20.7196 10.8783 23.7864 8.42924 26.6708 6.12792Z" fill="#009446"/>
<path fill-rule="evenodd" clip-rule="evenodd" d="M40.8768 25.6853C41.4958 24.9504 42.1127 24.2253 42.7168 23.5081C41.8958 22.9407 41.0876 22.385 40.3052 21.8511C40.4851 23.0786 40.6764 24.3573 40.8768 25.6853Z" fill="#009446"/>
<path fill-rule="evenodd" clip-rule="evenodd" d="M30.7733 15.3549C29.1742 16.8445 27.5184 18.3931 25.8056 20.0068C24.0282 21.6796 22.1877 23.4273 20.2704 25.2479C21.8391 26.8773 23.5062 28.623 25.2919 30.4865C27.2108 32.4884 29.2716 34.6474 31.5004 36.9631C33.8888 34.0644 36.1586 31.3253 38.3175 28.7353C37.9671 25.4922 37.6539 22.5426 37.3672 19.8393C35.0069 18.2316 32.8181 16.744 30.7733 15.3549Z" fill="#27A65C"/>
<path fill-rule="evenodd" clip-rule="evenodd" d="M36.3481 10.1867C35.055 11.3807 33.7224 12.6141 32.3507 13.8889C33.8395 14.8347 35.4073 15.8316 37.0582 16.8838C36.7977 14.4642 36.5664 12.2398 36.3481 10.1867Z" fill="#91AF4A"/>
<path fill-rule="evenodd" clip-rule="evenodd" d="M52.1643 12.4882C49.8366 11.4104 47.6411 10.3917 45.5689 9.43418C43.6128 8.5298 41.7538 7.66879 39.991 6.8452C39.4367 7.35354 38.877 7.86778 38.3087 8.384C38.5247 9.844 38.752 11.3907 38.995 13.032C39.2543 14.7856 39.5333 16.6573 39.8298 18.6611C41.2738 19.5852 42.7784 20.5527 44.3599 21.5693C45.7766 19.9064 47.1408 18.3065 48.4602 16.7696C49.7324 15.288 50.9695 13.8654 52.1643 12.4882Z" fill="#68FFA8"/>
<path fill-rule="evenodd" clip-rule="evenodd" d="M44.076 40.3892C39.6298 39.1754 35.4515 38.0394 31.5002 36.9632C33.8887 34.0645 36.1585 31.3253 38.3173 28.7354C40.0291 32.2007 41.9336 36.0588 44.076 40.3892Z" fill="#01EC71"/>
<path fill-rule="evenodd" clip-rule="evenodd" d="M65.7786 27.4861C64.4012 29.871 62.953 32.3794 61.4319 35.0141C59.8297 37.7891 58.1425 40.7114 56.358 43.8022C54.1896 43.1978 52.0859 42.6102 50.0319 42.0361C48.1788 38.7324 46.478 35.6919 44.9152 32.8986C43.466 30.3088 42.1211 27.9176 40.8768 25.6852C41.4959 24.9503 42.1128 24.2252 42.7169 23.508C46.1123 24.0775 49.6759 24.6784 53.4055 25.3227C57.3195 25.9985 61.4433 26.7196 65.7786 27.4861Z" fill="#00A850"/>
<path fill-rule="evenodd" clip-rule="evenodd" d="M59.2825 13.1225L62.0977 13.3727C65.6821 13.6919 69.4426 14.019 73.36 14.354C72.4182 15.9854 71.4419 17.6759 70.425 19.4374C69.3677 21.2678 68.2679 23.1731 67.1194 25.1631C63.3423 24.5503 59.7239 23.9711 56.2648 23.4233L59.2825 13.1225Z" fill="#009446"/>
<path fill-rule="evenodd" clip-rule="evenodd" d="M52.1643 12.488C53.7175 12.6259 55.3057 12.7678 56.9279 12.9116L54.199 23.0962C50.778 22.5563 47.4968 22.0539 44.3599 21.5692C45.7765 19.9063 47.1408 18.3064 48.4601 16.7695C49.7323 15.2878 50.9695 13.8653 52.1643 12.488Z" fill="#76FFB7"/>
<path fill-rule="evenodd" clip-rule="evenodd" d="M55.1172 21.2599C58.1964 21.2599 60.6926 22.6726 60.6926 24.4163C60.6926 26.16 58.1964 27.5728 55.1172 27.5728C52.0382 27.5728 49.542 26.16 49.542 24.4163C49.542 22.6726 52.0382 21.2599 55.1172 21.2599Z" fill="#FEFEFE"/>
<path fill-rule="evenodd" clip-rule="evenodd" d="M55.1173 22.3949C57.0904 22.3949 58.6899 23.2993 58.6899 24.4165C58.6899 25.5336 57.0904 26.438 55.1173 26.438C53.1444 26.438 51.5449 25.5336 51.5449 24.4165C51.5449 23.2993 53.1444 22.3949 55.1173 22.3949Z" fill="#0A0A0A"/>
<path fill-rule="evenodd" clip-rule="evenodd" d="M55.1174 0.847626C59.9273 0.847626 63.8287 4.74884 63.8287 9.55837C63.8287 14.8526 59.804 19.9281 56.1528 23.4254L55.1174 24.4165L54.0822 23.4254C50.431 19.9281 46.4062 14.8526 46.4062 9.55837C46.4062 4.74884 50.3077 0.847626 55.1174 0.847626Z" fill="#0A0A0A"/>
<path fill-rule="evenodd" clip-rule="evenodd" d="M55.1173 6.2087C53.2611 6.2087 51.7563 7.71206 51.7563 9.57006C51.7563 11.4261 53.2611 12.9294 55.1173 12.9294C56.9737 12.9294 58.4785 11.4261 58.4785 9.57006C58.4785 7.71206 56.9737 6.2087 55.1173 6.2087Z" fill="#FEFEFE"/>
<path fill-rule="evenodd" clip-rule="evenodd" d="M55.1173 2.34312C51.1337 2.34312 47.903 5.57441 47.903 9.55838C47.903 14.364 51.775 19.144 55.1173 22.3438C58.4599 19.144 62.3316 14.364 62.3316 9.55838C62.3316 5.57441 59.101 2.34312 55.1173 2.34312ZM55.1173 4.36859C52.2447 4.36859 49.9158 6.6975 49.9158 9.57022C49.9158 12.4429 52.2447 14.7699 55.1173 14.7699C57.9902 14.7699 60.3189 12.4429 60.3189 9.57022C60.3189 6.6975 57.9902 4.36859 55.1173 4.36859Z" fill="#00853F"/>
<path fill-rule="evenodd" clip-rule="evenodd" d="M66.0911 13.7254C65.0961 13.6387 64.1133 13.552 63.143 13.4654C62.1117 16.4937 60.0496 19.3251 57.8767 21.6737C58.3791 21.8352 58.8327 22.0421 59.2216 22.2805C62.5065 20.3831 65.5379 18.0384 66.1871 15.615C66.3658 14.947 66.3229 14.3106 66.0911 13.7254Z" fill="#009446"/>
<path fill-rule="evenodd" clip-rule="evenodd" d="M43.6908 22.7613L45.7279 25.2714L44.6823 26.0734L42.7169 23.508L43.6908 22.7613ZM57.6054 39.9079L58.6181 41.1559L57.352 42.6626L56.1422 41.029L57.6054 39.9079ZM54.8225 36.4788L56.8594 38.9888L55.4225 40.0898L53.4573 37.5248L54.8225 36.4788ZM52.0396 33.0495L54.0765 35.5594L52.7375 36.5856L50.7721 34.0206L52.0396 33.0495ZM49.2568 29.6201L51.2937 32.1303L50.0524 33.0814L48.0872 30.5164L49.2568 29.6201ZM46.4737 26.1916L48.5106 28.7018L47.3674 29.5772L45.4021 27.0112L46.4737 26.1916Z" fill="#FEFEFE"/>
<path fill-rule="evenodd" clip-rule="evenodd" d="M26.463 11.9148C28.5361 11.9148 30.217 12.8665 30.217 14.0388C30.217 15.2131 28.5361 16.1648 26.463 16.1648C24.3896 16.1648 22.7087 15.2131 22.7087 14.0388C22.7087 12.8665 24.3896 11.9148 26.463 11.9148Z" fill="#FEFEFE"/>
<path fill-rule="evenodd" clip-rule="evenodd" d="M26.4631 12.7542C27.7175 12.7542 28.7348 13.3295 28.7348 14.0388C28.7348 14.7501 27.7175 15.3254 26.4631 15.3254C25.2084 15.3254 24.1913 14.7501 24.1913 14.0388C24.1913 13.3295 25.2084 12.7542 26.4631 12.7542Z" fill="#00853F"/>
</svg>
